<?xml version="1.0" encoding="UTF-8"?>
<!-- Generator: Adobe Illustrator 20.1.0, SVG Export Plug-In . SVG Version: 6.00 Build 0)  -->
<svg version="1.1" id="Layer_1" xmlns="http://www.w3.org/2000/svg" xmlns:xlink="http://www.w3.org/1999/xlink" x="0px" y="0px" viewBox="0 0 200.5 200.5" style="enable-background:new 0 0 200.5 200.5;" xml:space="preserve">
<style type="text/css">
	.st0{fill:#FF273E;}
</style>
<path class="st0" d="M199.4,97.5l-10.2-11.4l6.2-14c0.9-1.9,0.1-4.2-1.7-5.2l-13.3-7.6l1.6-15.2c0.2-2.1-1.2-4-3.2-4.4l-15-3.2  l-3.2-15c-0.4-2-2.3-3.4-4.4-3.2L141.1,20l-7.6-13.3c-1-1.8-3.3-2.5-5.2-1.7l-14,6.2L103,1.1c-1.6-1.4-3.9-1.4-5.5,0L86.2,11.3  l-14-6.2C70.3,4.2,68,4.9,67,6.7L59.4,20l-15.2-1.6c-2.1-0.2-4,1.2-4.4,3.2l-3.2,15l-15,3.2c-2,0.4-3.4,2.3-3.2,4.4L20,59.4L6.7,67  c-1.8,1-2.5,3.3-1.7,5.2l6.2,14L1.1,97.5c-1.4,1.6-1.4,3.9,0,5.5l10.2,11.4l-6.2,14c-0.9,1.9-0.1,4.2,1.7,5.2l13.3,7.6l-1.6,15.2  c-0.2,2.1,1.2,4,3.2,4.4l15,3.2l3.2,15c0.4,2,2.3,3.4,4.4,3.2l15.2-1.6l7.6,13.3c1,1.8,3.3,2.5,5.2,1.7l14-6.2l11.4,10.2  c0.8,0.7,1.8,1.1,2.7,1.1c1,0,2-0.4,2.7-1.1l11.4-10.2l14,6.2c1.9,0.9,4.2,0.1,5.2-1.7l7.6-13.3l15.2,1.6c2.1,0.2,4-1.2,4.4-3.2  l3.2-15l15-3.2c2-0.4,3.4-2.3,3.2-4.4l-1.6-15.2l13.3-7.6c1.8-1,2.5-3.3,1.7-5.2l-6.2-14l10.2-11.4  C200.8,101.4,200.8,99.1,199.4,97.5z"/>
</svg>